<svg version="1.2" xmlns="http://www.w3.org/2000/svg" viewBox="0 0 448 512" width="448" height="512">
	<style>
		.s0 { fill: none;stroke: #cdd0d2;stroke-linecap: round;stroke-linejoin: round;stroke-width: 20 } 
	</style>
	<path class="s0" d="m421.49 163.52c-1.5-35.89-8.77-67.68-32.08-93.87-23.22-26.19-51.4-34.39-83.22-36.19-32.8-2.1-131.08-2.1-163.88 0-31.73 1.7-59.91 9.9-83.22 36.09-23.31 26.19-30.49 57.98-32.08 93.87-1.86 36.99-1.86 147.87 0 184.86 1.5 35.89 8.77 67.68 32.08 93.87 23.31 26.19 51.4 34.39 83.22 36.19 32.8 2.1 131.08 2.1 163.88 0 31.82-1.7 60-9.9 83.22-36.19 23.22-26.19 30.49-57.98 32.08-93.87 1.86-36.99 1.86-147.77 0-184.76zm-114.95-27.19c0-7.1 2.5-13.92 6.96-18.94 4.45-5.03 10.49-7.85 16.79-7.85 6.3 0 12.35 2.82 16.8 7.85 4.45 5.02 6.96 11.84 6.96 18.94 0 7.11-2.51 13.92-6.96 18.95-4.45 5.02-10.5 7.84-16.8 7.84-6.3 0-12.34-2.82-16.79-7.84-4.46-5.03-6.96-11.84-6.96-18.95zm-82.25 4.7c-27.03-0.08-52.98 11.96-72.14 33.46-19.17 21.51-29.97 50.72-30.04 81.21-0.07 30.49 10.6 59.77 29.66 81.38 19.06 21.62 44.96 33.81 71.99 33.89 27.03 0.08 52.99-11.96 72.15-33.46 19.16-21.51 29.97-50.72 30.04-81.21 0.07-30.49-10.6-59.77-29.66-81.38-19.07-21.62-44.96-33.81-72-33.89z"/>
</svg>